<svg xmlns="http://www.w3.org/2000/svg" enable-background="new 0 0 512 512" viewBox="0 0 512 512" id="certificate"><rect width="502" height="328" x="5" y="80" fill="#f3e630"></rect><path fill="#fffa5a" d="M244.2,338H5V80h432v65.2C437,251.7,350.7,338,244.2,338z"></path><polygon fill="#f8d707" points="417.8 303.9 403.2 297.7 392.8 285.8 377.3 289.3 361.9 285.8 351.5 297.7 336.9 303.9 335.5 319.7 327.3 333.3 335.5 346.9 336.9 362.7 351.4 368.9 357 375.5 357 408 397 408 397 375.5 403 368.9 417.7 362.7 419.1 346.9 427.3 333.3 419.2 319.7"></polygon><path fill="#68a1d6" d="M483,150c-25.4,0-46-21-46-46H75c0,25-21,46-46,46V338c25.4,0,46,21,46,46H437
			c0-25,20.6-46,46-46c0,0,0,0,0,0L483,150C483,150,483,150,483,150z"></path><path fill="#9ad2fc" d="M437,145.2V104H75c0,25-21,46-46,46v188h215.2C350.7,338,437,251.7,437,145.2z"></path><polygon fill="#3179af" points="417.8 303.9 403.2 297.7 392.8 285.8 377.3 289.3 361.9 285.8 351.5 297.7 336.9 303.9 335.5 319.7 327.3 333.3 335.5 346.9 336.9 362.7 351.4 368.9 357 375.5 357 384 397 384 397 375.5 403 368.9 417.7 362.7 419.1 346.9 427.3 333.3 419.2 319.7"></polygon><polygon fill="#c075ac" points="384.5 432 364.3 408 344.2 432 344.2 320.3 384.5 320.3"></polygon><polygon fill="#b23998" points="344 378.5 348.8 383.9 364.3 380.3 379.5 383.9 384 378.5 384 320 344 320"></polygon><polygon fill="#c075ac" points="364.3 276.3 379.8 272.8 390.2 284.7 404.8 290.9 406.2 306.7 414.3 320.3 406.2 333.9 404.8 349.7 390.2 355.9 379.8 367.9 364.3 364.3 348.9 367.9 338.5 355.9 323.9 349.7 322.5 333.9 314.3 320.3 322.5 306.7 323.9 290.9 338.5 284.7 348.9 272.8"></polygon><circle cx="364.3" cy="320.3" r="26.4" fill="#f3e630"></circle><rect width="216" height="10" x="148" y="145" fill="#a38c31"></rect><rect width="304" height="10" x="104" y="205" fill="#a38c31"></rect><rect width="304" height="10" x="104" y="239" fill="#a38c31"></rect><path fill="#a38c31" d="M192,333.4c-7.4,0-14.1-4.2-17.3-10.9c-1.6-3.3-4.7-5.2-8.3-5.2s-6.7,1.9-8.3,5.2
				c-3.2,6.7-9.9,10.9-17.3,10.9s-14.1-4.2-17.3-10.9l9-4.3c1.6,3.3,4.7,5.2,8.3,5.2c3.6,0,6.7-1.9,8.3-5.2
				c3.2-6.7,9.9-10.9,17.3-10.9c7.4,0,14.1,4.2,17.3,10.9c1.6,3.3,4.7,5.2,8.3,5.2s6.7-1.9,8.3-5.2c3.2-6.7,9.9-10.9,17.3-10.9
				c0,0,0,0,0,0c7.4,0,14.1,4.2,17.3,10.9l-9,4.3c-1.6-3.3-4.7-5.2-8.3-5.2s-6.7,1.9-8.3,5.2C206.1,329.2,199.4,333.4,192,333.4z"></path><g><path fill="#060d1a" d="M364.3 351.7c-17.3 0-31.4-14.1-31.4-31.4 0-17.3 14.1-31.4 31.4-31.4s31.4 14.1 31.4 31.4C395.8 337.6 381.7 351.7 364.3 351.7zM364.3 298.9c-11.8 0-21.4 9.6-21.4 21.4s9.6 21.4 21.4 21.4c11.8 0 21.4-9.6 21.4-21.4S376.1 298.9 364.3 298.9zM344.2 437c-.6 0-1.1-.1-1.7-.3-2-.7-3.3-2.6-3.3-4.7v-69.1h10v55.2l11.3-13.7c.9-1.1 2.4-1.8 3.9-1.8 1.5 0 2.9.7 3.9 1.8l11.3 13.7v-55.2h10V432c0 2.1-1.3 4-3.3 4.7-2 .7-4.2.1-5.5-1.5l-16.3-19.7L348 435.2C347.1 436.4 345.6 437 344.2 437z"></path><rect width="216" height="10" x="148" y="145" fill="#060d1a"></rect><rect width="304" height="10" x="104" y="205" fill="#060d1a"></rect><rect width="304" height="10" x="104" y="239" fill="#060d1a"></rect><path fill="#060d1a" d="M192 333.4c-7.4 0-14.1-4.2-17.3-10.9-1.6-3.3-4.7-5.2-8.3-5.2s-6.7 1.9-8.3 5.2c-3.2 6.7-9.9 10.9-17.3 10.9s-14.1-4.2-17.3-10.9l9-4.3c1.6 3.3 4.7 5.2 8.3 5.2 3.6 0 6.7-1.9 8.3-5.2 3.2-6.7 9.9-10.9 17.3-10.9 7.4 0 14.1 4.2 17.3 10.9 1.6 3.3 4.7 5.2 8.3 5.2s6.7-1.9 8.3-5.2c3.2-6.7 9.9-10.9 17.3-10.9 0 0 0 0 0 0 7.4 0 14.1 4.2 17.3 10.9l-9 4.3c-1.6-3.3-4.7-5.2-8.3-5.2s-6.7 1.9-8.3 5.2C206.1 329.2 199.4 333.4 192 333.4zM379.8 372.9c-.4 0-.7 0-1.1-.1l-14.3-3.3-14.3 3.3c-1.8.4-3.7-.2-4.9-1.6l-9.7-11.1-13.5-5.8c-1.7-.7-2.9-2.3-3-4.2l-1.3-14.6-7.6-12.6c-.9-1.6-.9-3.6 0-5.1l7.6-12.6 1.3-14.6c.2-1.8 1.3-3.4 3-4.2l13.5-5.8 9.7-11.1c1.2-1.4 3.1-2 4.9-1.6l14.3 3.3 14.3-3.3c1.8-.4 3.7.2 4.9 1.6l9.7 11.1 13.5 5.8c1.7.7 2.9 2.3 3 4.2l1.3 14.6 7.6 12.6c.9 1.6.9 3.6 0 5.1l-7.6 12.6-1.3 14.6c-.2 1.8-1.3 3.4-3 4.2l-13.5 5.8-9.7 11.1C382.6 372.3 381.2 372.9 379.8 372.9zM364.3 359.3c.4 0 .8 0 1.1.1l12.5 2.9 8.4-9.7c.5-.6 1.1-1 1.8-1.3l11.8-5 1.1-12.8c.1-.8.3-1.5.7-2.1l6.6-11-6.6-11c-.4-.6-.6-1.4-.7-2.1l-1.1-12.8-11.8-5c-.7-.3-1.3-.7-1.8-1.3l-8.4-9.7-12.5 2.9c-.7.2-1.5.2-2.2 0l-12.5-2.9-8.4 9.7c-.5.6-1.1 1-1.8 1.3l-11.8 5-1.1 12.8c-.1.8-.3 1.5-.7 2.1l-6.6 11 6.6 11c.4.6.6 1.4.7 2.1l1.1 12.8 11.8 5c.7.3 1.3.7 1.8 1.3l8.4 9.7 12.5-2.9C363.6 359.4 364 359.3 364.3 359.3z"></path><path fill="#060d1a" d="M344 389H75c-2.8 0-5-2.2-5-5 0-22.6-18.4-41-41-41-2.8 0-5-2.2-5-5V150c0-2.8 2.2-5 5-5 22.6 0 41-18 41-41h10c0 26-20.2 48.2-46 50.7v178.5c24.1 2.4 43.4 21.7 45.7 45.7H344V389zM437 389h-32v-10h27.3c2.4-24 21.6-43.4 45.7-45.8V154.8c-24.1-2.4-43.4-21.8-45.7-45.8H95V99h342c2.8 0 5 2.2 5 5 0 22.6 18.4 41 41 41 2.8 0 5 2.2 5 5v188c0 2.8-2.2 5-5 5-22.6 0-41 18.4-41 41C442 386.8 439.8 389 437 389z"></path><path fill="#060d1a" d="M507,413H384.5v-10H502V85H10v318h314v10H5c-2.8,0-5-2.2-5-5V80c0-2.8,2.2-5,5-5h502
				c2.8,0,5,2.2,5,5v328C512,410.8,509.8,413,507,413z"></path></g></svg>